<?xml version="1.0" standalone="no"?>
<!DOCTYPE svg PUBLIC "-//W3C//DTD SVG 20010904//EN"
 "http://www.w3.org/TR/2001/REC-SVG-20010904/DTD/svg10.dtd">
<svg version="1.0" xmlns="http://www.w3.org/2000/svg"
 width="2000.000000pt" height="2000.000000pt" viewBox="0 0 2000.000000 2000.000000"
 preserveAspectRatio="xMidYMid meet">

<g transform="translate(0.000000,2000.000000) scale(0.100000,-0.100000)"
fill="#000000" stroke="none">
<path d="M14283 18490 c-26 -11 -54 -62 -87 -162 -14 -40 -34 -98 -46 -128
-11 -30 -32 -86 -45 -125 -13 -38 -38 -107 -54 -153 -17 -46 -37 -102 -45
-125 -8 -23 -24 -67 -36 -97 -12 -30 -32 -86 -45 -125 -13 -38 -33 -95 -45
-125 -12 -30 -25 -66 -30 -80 -5 -14 -18 -50 -30 -80 -12 -30 -25 -66 -29 -80
-27 -84 -198 -425 -295 -589 -399 -673 -1010 -1244 -1708 -1599 -132 -67 -414
-192 -433 -192 -5 0 -22 -7 -38 -15 -15 -7 -60 -25 -100 -39 -70 -24 -103 -36
-312 -111 -55 -20 -131 -48 -170 -61 -38 -14 -79 -29 -90 -33 -11 -5 -60 -23
-110 -41 -49 -17 -126 -45 -171 -61 -44 -16 -84 -29 -90 -29 -18 0 -87 -42
-105 -63 -11 -13 -18 -39 -19 -64 0 -36 5 -46 38 -73 20 -17 64 -41 97 -52
105 -35 339 -119 372 -134 17 -8 35 -14 39 -14 7 0 144 -48 199 -70 11 -4 58
-22 105 -38 290 -104 354 -128 430 -159 338 -137 732 -359 973 -545 444 -345
812 -752 1079 -1193 72 -120 218 -393 218 -409 0 -3 20 -48 45 -100 25 -53 45
-100 45 -106 0 -5 6 -24 14 -42 8 -18 22 -53 31 -78 10 -25 21 -54 26 -65 5
-11 15 -40 24 -65 23 -67 42 -120 76 -212 16 -46 36 -102 45 -125 8 -23 28
-79 45 -125 16 -46 39 -110 50 -143 11 -33 24 -69 29 -80 5 -11 16 -38 23 -60
46 -134 77 -215 86 -233 39 -73 142 -83 185 -17 9 14 31 63 47 108 44 121 90
249 99 277 5 14 18 50 30 80 11 30 32 87 45 125 13 39 33 95 45 125 11 30 32
87 45 125 38 112 92 258 115 316 12 30 29 72 37 94 8 22 23 58 33 80 10 22 30
67 45 100 44 99 125 255 174 335 11 19 25 44 30 55 5 11 21 37 35 58 14 21 26
39 26 41 0 10 163 244 231 332 218 281 516 576 794 785 120 91 340 241 375
256 8 3 26 14 40 23 47 33 275 151 400 208 69 31 312 128 395 157 28 9 59 21
70 25 20 8 187 68 375 135 58 21 119 44 137 51 17 8 35 14 39 14 7 0 150 50
199 70 11 5 56 21 100 36 96 34 145 77 145 129 0 52 -49 95 -145 129 -44 15
-94 34 -112 42 -17 8 -35 14 -39 14 -10 0 -174 59 -196 71 -10 5 -23 9 -29 9
-6 0 -25 6 -42 14 -18 7 -70 27 -117 44 -209 73 -297 105 -325 117 -16 7 -48
18 -70 25 -106 33 -425 166 -525 219 -156 82 -209 112 -310 174 -363 221 -657
462 -937 769 -108 119 -264 312 -331 411 -15 23 -49 73 -75 110 -26 38 -47 70
-47 73 0 2 -12 23 -27 47 -36 54 -43 67 -72 119 -13 24 -36 66 -51 93 -49 89
-67 125 -165 340 -7 17 -20 48 -28 70 -8 22 -25 65 -38 95 -12 30 -28 73 -35
95 -7 22 -22 65 -34 95 -12 30 -32 87 -45 125 -13 39 -33 95 -45 125 -12 30
-32 87 -45 125 -13 39 -33 95 -45 125 -12 30 -32 87 -45 125 -13 39 -33 95
-45 125 -12 30 -30 82 -42 115 -29 82 -44 111 -70 129 -24 17 -80 20 -115 6z"/>
<path d="M5255 16859 c-93 -4 -195 -11 -225 -17 -30 -6 -77 -13 -105 -17 -61
-7 -176 -31 -270 -56 -38 -10 -90 -24 -115 -30 -25 -6 -60 -18 -78 -25 -18 -8
-39 -14 -47 -14 -8 0 -29 -6 -47 -14 -18 -8 -58 -24 -88 -36 -563 -219 -1056
-602 -1422 -1105 -119 -163 -244 -380 -317 -550 -12 -27 -26 -59 -31 -70 -107
-238 -187 -549 -230 -900 -12 -91 -12 -8547 0 -8645 25 -223 49 -343 113 -580
22 -80 83 -250 117 -325 5 -11 19 -42 31 -70 233 -540 672 -1045 1203 -1385
141 -90 480 -260 519 -260 7 0 17 -4 23 -9 10 -10 163 -64 245 -86 251 -70
331 -86 584 -115 101 -12 8520 -12 8625 0 298 34 551 92 780 180 30 12 66 25
80 30 126 41 453 217 628 338 173 119 394 313 529 464 457 510 708 1051 810
1743 16 112 18 309 20 2949 3 2528 2 2836 -12 2890 -20 79 -49 135 -105 203
-144 178 -398 234 -595 130 -74 -40 -180 -144 -219 -217 -64 -118 -60 29 -63
-2175 -2 -1105 -7 -2013 -11 -2017 -6 -6 -662 730 -847 951 -22 26 -166 191
-320 366 -272 310 -400 457 -555 635 -64 75 -412 471 -910 1040 -208 238 -322
342 -495 455 -79 51 -246 139 -295 155 -14 5 -50 18 -80 30 -168 65 -462 119
-651 120 -185 0 -483 -55 -649 -120 -30 -12 -66 -25 -80 -29 -45 -15 -254
-127 -325 -176 -183 -125 -274 -214 -606 -595 -127 -146 -640 -732 -726 -830
-152 -173 -617 -706 -707 -809 -157 -182 -185 -211 -200 -211 -8 0 -59 55
-114 123 -260 318 -502 610 -570 684 -223 249 -535 438 -872 532 -295 83 -659
83 -961 2 -179 -48 -388 -142 -543 -246 -86 -57 -234 -179 -295 -243 -32 -34
-283 -331 -420 -497 -31 -38 -134 -162 -227 -275 -94 -113 -248 -299 -344
-415 -412 -497 -503 -605 -510 -605 -4 0 -9 6 -11 13 -2 6 -2 1553 1 3437 5
3210 6 3430 23 3505 57 263 92 371 184 565 106 224 232 401 427 596 195 195
365 316 596 427 199 95 280 121 590 187 30 7 116 14 190 17 74 2 1355 5 2845
6 2437 2 2715 4 2760 18 185 58 315 190 361 364 30 110 11 261 -45 358 -67
117 -161 196 -281 236 l-65 22 -2715 2 c-1493 1 -2791 -1 -2885 -4z m6380
-7059 c98 -28 239 -100 311 -159 33 -27 110 -105 170 -173 110 -123 171 -192
514 -583 102 -116 248 -282 325 -370 77 -87 156 -177 175 -199 19 -23 118
-135 220 -250 102 -115 219 -249 260 -296 67 -78 269 -308 794 -905 282 -320
918 -1045 1034 -1178 72 -83 112 -137 112 -151 0 -34 -37 -261 -54 -336 -44
-187 -83 -292 -181 -485 -238 -467 -635 -832 -1115 -1025 -129 -52 -178 -67
-315 -98 -49 -11 -112 -26 -140 -33 -40 -11 -883 -14 -4181 -19 -2271 -3
-4193 -2 -4270 2 -248 11 -510 75 -728 178 -48 22 -89 40 -91 40 -10 0 -172
95 -245 143 -160 107 -322 251 -440 392 -269 322 -429 671 -495 1079 -25 160
-32 142 116 322 72 87 164 200 204 249 40 50 112 137 160 195 48 58 111 134
140 170 29 36 91 110 137 166 312 379 399 485 443 540 28 34 100 122 161 196
112 135 509 618 664 807 126 155 156 186 234 245 126 94 255 146 414 166 217
28 439 -32 615 -164 87 -65 119 -99 297 -316 74 -90 216 -262 315 -381 99
-119 263 -317 364 -438 198 -239 235 -276 315 -314 122 -59 213 -70 333 -38
143 37 218 94 394 296 53 61 129 148 170 194 41 47 102 116 135 155 200 230
476 547 799 915 132 151 323 370 423 485 101 116 239 273 305 350 67 76 155
177 195 225 238 280 387 377 652 425 62 11 287 -4 355 -24z"/>
<path d="M5965 14859 c-103 -6 -251 -29 -320 -49 -102 -30 -174 -53 -202 -66
-17 -8 -34 -14 -38 -14 -16 0 -206 -97 -270 -138 -195 -125 -380 -293 -501
-456 -80 -106 -234 -378 -234 -412 0 -3 -6 -20 -14 -37 -13 -28 -28 -74 -66
-202 -5 -16 -19 -86 -31 -155 -18 -110 -20 -151 -16 -340 7 -311 44 -471 174
-750 169 -361 464 -661 833 -845 98 -49 157 -75 172 -75 8 0 18 -4 24 -9 23
-22 239 -73 403 -96 135 -19 367 -17 491 5 143 26 332 78 420 117 477 211 794
527 999 994 115 263 166 636 126 920 -23 164 -74 380 -96 404 -5 5 -9 15 -9
23 0 20 -74 177 -129 276 -139 246 -393 504 -636 648 -56 33 -213 110 -278
137 -147 60 -359 108 -507 116 -52 3 -115 7 -140 8 -25 2 -94 0 -155 -4z m338
-1019 c312 -82 549 -334 612 -652 63 -318 -82 -660 -358 -847 -402 -272 -968
-128 -1195 304 -36 70 -51 108 -73 195 -19 73 -21 103 -16 225 4 117 9 153 31
220 70 207 192 358 381 471 54 33 138 65 225 88 87 23 299 21 393 -4z"/>
</g>
</svg>
